<svg aria-hidden="true" style="position: absolute; width: 0; height: 0; overflow: hidden;" version="1.1" xmlns="http://www.w3.org/2000/svg" xmlns:xlink="http://www.w3.org/1999/xlink">
<defs>
<symbol id="icon-snowy" viewBox="0 0 32 32">
<path d="M20.378 27.73l-1.125-0.648c0.034-0.195 0.060-0.394 0.060-0.602s-0.026-0.406-0.063-0.602l1.128-0.65c0.526-0.307 0.706-0.983 0.404-1.506-0.305-0.53-0.979-0.711-1.508-0.406l-1.137 0.656c-0.305-0.259-0.648-0.462-1.031-0.6v-1.306c0-0.611-0.496-1.105-1.105-1.105s-1.104 0.495-1.104 1.105v1.305c-0.383 0.137-0.728 0.342-1.033 0.602l-1.134-0.656c-0.53-0.305-1.206-0.125-1.51 0.405-0.305 0.526-0.121 1.203 0.406 1.508l1.122 0.648c-0.037 0.197-0.060 0.396-0.060 0.603s0.023 0.406 0.060 0.602l-1.122 0.648c-0.529 0.305-0.711 0.984-0.406 1.512s0.98 0.707 1.508 0.402l1.135-0.652c0.305 0.258 0.65 0.461 1.034 0.598v1.309c0 0.609 0.495 1.102 1.104 1.102s1.105-0.492 1.105-1.102v-1.309c0.383-0.137 0.73-0.34 1.033-0.602l1.135 0.656c0.529 0.305 1.203 0.125 1.508-0.402s0.125-1.203-0.404-1.512zM16 27.586c-0.609 0-1.105-0.496-1.105-1.105s0.496-1.103 1.105-1.103 1.104 0.494 1.104 1.103-0.495 1.105-1.104 1.105zM29.635 24.766l-0.755-0.201c-0.018-0.24-0.076-0.467-0.181-0.686l0.548-0.548c0.258-0.258 0.256-0.674 0-0.928-0.255-0.256-0.669-0.258-0.927 0l-0.549 0.547c-0.216-0.102-0.447-0.16-0.685-0.18l-0.201-0.754c-0.094-0.349-0.453-0.559-0.805-0.465-0.35 0.095-0.555 0.454-0.464 0.805l0.201 0.744c-0.099 0.068-0.193 0.143-0.281 0.229-0.086 0.089-0.159 0.182-0.227 0.279l-0.744-0.201c-0.35-0.094-0.712 0.117-0.806 0.465-0.094 0.352 0.117 0.71 0.464 0.805l0.75 0.202c0.021 0.236 0.081 0.466 0.186 0.685l-0.551 0.551c-0.255 0.256-0.254 0.671 0.003 0.926 0.255 0.255 0.669 0.258 0.924 0.003l0.552-0.552c0.216 0.107 0.448 0.167 0.688 0.185l0.198 0.751c0.096 0.35 0.453 0.559 0.805 0.465 0.349-0.094 0.56-0.453 0.466-0.807l-0.201-0.744c0.094-0.066 0.19-0.141 0.279-0.227 0.086-0.087 0.159-0.184 0.227-0.28l0.745 0.201c0.35 0.094 0.711-0.116 0.803-0.464 0.094-0.349-0.113-0.708-0.462-0.805zM27.395 25.184c-0.258 0.258-0.673 0.256-0.93 0-0.254-0.254-0.256-0.671 0-0.928 0.256-0.255 0.673-0.255 0.93 0 0.254 0.256 0.254 0.674 0 0.928zM7.434 21.406l-0.742 0.199c-0.069-0.094-0.141-0.189-0.228-0.277-0.088-0.086-0.182-0.16-0.28-0.227l0.199-0.746c0.094-0.35-0.115-0.711-0.461-0.803-0.352-0.094-0.711 0.115-0.805 0.464l-0.203 0.754c-0.238 0.020-0.466 0.078-0.684 0.181l-0.551-0.548c-0.258-0.258-0.672-0.256-0.927 0-0.256 0.256-0.256 0.672 0 0.928l0.548 0.548c-0.103 0.219-0.163 0.449-0.181 0.686l-0.753 0.201c-0.352 0.096-0.56 0.453-0.466 0.805 0.095 0.349 0.454 0.555 0.806 0.464l0.742-0.202c0.066 0.1 0.141 0.194 0.231 0.281 0.086 0.086 0.18 0.163 0.277 0.227l-0.199 0.744c-0.094 0.352 0.115 0.714 0.463 0.807 0.352 0.094 0.708-0.115 0.802-0.465l0.203-0.75c0.238-0.020 0.469-0.079 0.688-0.184l0.549 0.549c0.255 0.258 0.669 0.253 0.927-0.003 0.254-0.254 0.258-0.669 0-0.926l-0.551-0.551c0.106-0.216 0.168-0.449 0.184-0.688l0.754-0.199c0.348-0.095 0.556-0.453 0.462-0.805-0.094-0.348-0.453-0.556-0.806-0.465zM5.535 23.185c-0.256 0.256-0.672 0.256-0.93 0-0.254-0.255-0.254-0.673 0-0.927 0.258-0.255 0.673-0.255 0.93 0s0.254 0.672 0 0.927zM32 11c0-3.859-3.141-7-7-7-0.332 0-0.66 0.023-0.987 0.070-1.867-2.544-4.814-4.070-8.013-4.070s-6.145 1.526-8.013 4.070c-0.327-0.047-0.655-0.070-0.987-0.070-3.859 0-7 3.141-7 7s3.141 7 7 7c0.856 0 1.693-0.156 2.482-0.458 1.81 1.578 4.112 2.458 6.518 2.458 2.409 0 4.708-0.88 6.518-2.458 0.789 0.302 1.626 0.458 2.482 0.458 3.859 0 7-3.141 7-7z"></path>
</symbol>
<symbol id="icon-cloud" viewBox="0 0 32 32">
<path d="M27.191 16.385c0.305-0.227 0.613-0.449 0.889-0.725 0.826-0.827 1.454-1.833 1.862-2.991 0.13-0.362 0.038-0.768-0.236-1.039-0.272-0.273-0.676-0.366-1.039-0.237-2.212 0.781-4.605 0.25-6.244-1.391-1.641-1.641-2.174-4.033-1.391-6.244 0.128-0.363 0.036-0.767-0.237-1.040-0.271-0.271-0.676-0.365-1.039-0.237-1.159 0.411-2.164 1.039-2.99 1.864-2.096 2.094-2.749 5.063-2.030 7.737-2.703 0.345-5.133 1.781-6.751 3.987-0.327-0.047-0.655-0.070-0.987-0.070-3.859 0-7 3.141-7 7s3.141 7 7 7c0.856 0 1.693-0.156 2.482-0.458 1.81 1.578 4.112 2.458 6.518 2.458 2.409 0 4.708-0.88 6.518-2.458 0.789 0.302 1.626 0.458 2.482 0.458 3.859 0 7-3.141 7-7 0-3.090-2.026-5.689-4.809-6.615zM18.182 5.76c0.159-0.161 0.329-0.311 0.509-0.452-0.141 2.249 0.671 4.461 2.319 6.108 1.648 1.648 3.861 2.458 6.109 2.319-0.862 1.099-2.050 1.783-3.32 2.074-1.711-2.172-4.225-3.539-6.997-3.762-0.767-2.122-0.318-4.59 1.38-6.288zM25 28c-1.070 0-2.057-0.344-2.871-0.917-1.467 1.768-3.652 2.917-6.129 2.917s-4.662-1.148-6.129-2.917c-0.813 0.573-1.801 0.917-2.871 0.917-2.762 0-5-2.238-5-5s2.238-5 5-5c0.676 0 1.316 0.137 1.902 0.379 1.262-2.46 3.734-4.181 6.645-4.346 0.152-0.009 0.301-0.033 0.453-0.033 0.807 0 1.582 0.126 2.313 0.349 0.987 0.302 1.887 0.794 2.668 1.428 0.746 0.605 1.371 1.348 1.863 2.181 0.083 0.141 0.177 0.273 0.253 0.421 0.587-0.242 1.229-0.379 1.904-0.379 2.762 0 5 2.238 5 5s-2.238 5-5 5z"></path>
</symbol>
<symbol id="icon-wind" viewBox="0 0 32 32">
<path d="M26.938 12c-1.656 0-3 1.344-3 3 0 0.353 0.073 0.685 0.184 1h-19.184c-0.552 0-1 0.448-1 1s0.448 1 1 1h22c1.656 0 3-1.344 3-3s-1.344-3-3-3zM4.938 14h12c1.656 0 3-1.344 3-3s-1.344-3-3-3-3 1.344-3 3c0 0.353 0.073 0.685 0.184 1h-9.184c-0.552 0-1 0.448-1 1s0.448 1 1 1zM20.938 20c-0.059 0-0.115 0.013-0.174 0.018-0.039-0.003-0.072-0.018-0.111-0.018h-15.428c-0.711 0-1.287 0.448-1.287 1s0.576 1 1.287 1h12.897c-0.111 0.315-0.184 0.648-0.184 1 0 1.656 1.344 3 3 3s3-1.344 3-3-1.344-3-3-3z"></path>
</symbol>
<symbol id="icon-cloud1" viewBox="0 0 32 32">
<path d="M32 20.548c0-2.565-1.771-4.716-4.156-5.296-0.101-4.022-3.389-7.252-7.433-7.252-2.369 0-4.477 1.109-5.839 2.835-0.764-0.987-1.959-1.624-3.303-1.624-2.307 0-4.176 1.871-4.176 4.179 0 0.201 0.015 0.399 0.043 0.592-0.351-0.063-0.711-0.098-1.080-0.098-3.344-0-6.054 2.712-6.054 6.058s2.71 6.058 6.054 6.058l20.508-0c3.004-0.006 5.438-2.444 5.438-5.451z"></path>
</symbol>
<symbol id="icon-cloud-check" viewBox="0 0 32 32">
<path d="M27.883 16.078c0.076-0.347 0.117-0.708 0.117-1.078 0-2.761-2.239-5-5-5-0.445 0-0.875 0.058-1.285 0.167-0.775-2.417-3.040-4.167-5.715-4.167-2.73 0-5.033 1.823-5.76 4.318-0.711-0.207-1.462-0.318-2.24-0.318-4.418 0-8 3.582-8 8s3.582 8 8 8h19c2.761 0 5-2.239 5-5 0-2.46-1.777-4.505-4.117-4.922zM13 24l-5-5 2-2 3 3 7-7 2 2-9 9z"></path>
</symbol>
<symbol id="icon-sun" viewBox="0 0 32 32">
<path d="M16 26c1.105 0 2 0.895 2 2v2c0 1.105-0.895 2-2 2s-2-0.895-2-2v-2c0-1.105 0.895-2 2-2zM16 6c-1.105 0-2-0.895-2-2v-2c0-1.105 0.895-2 2-2s2 0.895 2 2v2c0 1.105-0.895 2-2 2zM30 14c1.105 0 2 0.895 2 2s-0.895 2-2 2h-2c-1.105 0-2-0.895-2-2s0.895-2 2-2h2zM6 16c0 1.105-0.895 2-2 2h-2c-1.105 0-2-0.895-2-2s0.895-2 2-2h2c1.105 0 2 0.895 2 2zM25.899 23.071l1.414 1.414c0.781 0.781 0.781 2.047 0 2.828s-2.047 0.781-2.828 0l-1.414-1.414c-0.781-0.781-0.781-2.047 0-2.828s2.047-0.781 2.828 0zM6.101 8.929l-1.414-1.414c-0.781-0.781-0.781-2.047 0-2.828s2.047-0.781 2.828 0l1.414 1.414c0.781 0.781 0.781 2.047 0 2.828s-2.047 0.781-2.828 0zM25.899 8.929c-0.781 0.781-2.047 0.781-2.828 0s-0.781-2.047 0-2.828l1.414-1.414c0.781-0.781 2.047-0.781 2.828 0s0.781 2.047 0 2.828l-1.414 1.414zM6.101 23.071c0.781-0.781 2.047-0.781 2.828 0s0.781 2.047 0 2.828l-1.414 1.414c-0.781 0.781-2.047 0.781-2.828 0s-0.781-2.047 0-2.828l1.414-1.414z"></path>
<path d="M16 8c-4.418 0-8 3.582-8 8s3.582 8 8 8c4.418 0 8-3.582 8-8s-3.582-8-8-8zM16 21c-2.761 0-5-2.239-5-5s2.239-5 5-5 5 2.239 5 5-2.239 5-5 5z"></path>
</symbol>
<symbol id="icon-weather-night" viewBox="0 0 24 24">
<path d="M10.5 20c-0.861 0-1.71-0.151-2.523-0.451l-1.317-0.485 0.89-1.087c1.275-1.56 1.95-3.454 1.95-5.477s-0.675-3.917-1.951-5.477l-0.89-1.087 1.317-0.485c0.814-0.3 1.663-0.451 2.524-0.451 4.136 0 7.5 3.364 7.5 7.5s-3.364 7.5-7.5 7.5zM9.991 17.976c0.169 0.016 0.339 0.024 0.509 0.024 3.032 0 5.5-2.468 5.5-5.5s-2.468-5.5-5.5-5.5c-0.17 0-0.34 0.008-0.509 0.024 0.991 1.645 1.509 3.511 1.509 5.476s-0.518 3.831-1.509 5.476z"></path>
</symbol>
<symbol id="icon-weather-snow" viewBox="0 0 24 24">
<path d="M20.5 15.134l-2.457-0.503 1.483-0.396c0.533-0.143 0.85-0.69 0.707-1.225-0.142-0.533-0.689-0.85-1.225-0.707l-1.508 0.403c0.037-0.231 0.071-0.464 0.071-0.706s-0.034-0.476-0.071-0.707l1.51 0.404c0.087 0.023 0.174 0.034 0.26 0.034 0.441 0 0.846-0.295 0.965-0.741 0.143-0.533-0.174-1.082-0.707-1.225l-1.483-0.397 2.455-0.502c0.216-0.044 0.42-0.156 0.577-0.333 0.386-0.436 0.347-1.102-0.089-1.488s-1.102-0.347-1.488 0.089l-1.663 1.874 0.398-1.479c0.144-0.533-0.173-1.082-0.706-1.226-0.531-0.142-1.082 0.173-1.226 0.706l-0.407 1.517c-0.366-0.299-0.771-0.544-1.219-0.717l1.102-1.102c0.391-0.391 0.391-1.023 0-1.414s-1.023-0.391-1.414 0l-1.086 1.086 0.793-2.379c0.069-0.209 0.075-0.441 0-0.667-0.184-0.552-0.781-0.851-1.333-0.666s-0.85 0.78-0.667 1.333l0.793 2.379-1.086-1.086c-0.391-0.391-1.023-0.391-1.414 0s-0.391 1.023 0 1.414l1.102 1.102c-0.447 0.173-0.853 0.419-1.219 0.717l-0.405-1.515c-0.143-0.534-0.697-0.852-1.224-0.708-0.534 0.143-0.851 0.69-0.708 1.224l0.396 1.485-1.662-1.877c-0.146-0.164-0.345-0.285-0.578-0.333-0.57-0.117-1.127 0.25-1.244 0.82s0.251 1.128 0.822 1.245l2.454 0.503-1.48 0.396c-0.533 0.143-0.85 0.691-0.707 1.225 0.119 0.447 0.523 0.741 0.965 0.741 0.086 0 0.173-0.011 0.26-0.034l1.508-0.404c-0.039 0.231-0.073 0.465-0.073 0.706s0.034 0.475 0.071 0.707l-1.508-0.404c-0.532-0.142-1.081 0.173-1.225 0.707-0.144 0.533 0.174 1.082 0.707 1.225l1.483 0.397-2.455 0.502c-0.216 0.044-0.42 0.156-0.577 0.334-0.387 0.436-0.347 1.102 0.089 1.487 0.436 0.387 1.103 0.347 1.488-0.089l1.665-1.878-0.398 1.484c-0.144 0.533 0.173 1.082 0.707 1.225 0.087 0.023 0.174 0.034 0.26 0.034 0.441 0 0.845-0.294 0.965-0.741l0.406-1.515c0.366 0.298 0.771 0.544 1.22 0.716l-1.104 1.102c-0.391 0.39-0.391 1.023 0 1.414s1.023 0.391 1.414 0l0.706-0.707h0.252l-0.666 1.999c-0.069 0.209-0.075 0.441 0 0.667 0.184 0.552 0.781 0.851 1.333 0.666 0.553-0.184 0.851-0.78 0.667-1.333l-0.666-1.999h0.252l0.707 0.707c0.196 0.195 0.451 0.293 0.707 0.293s0.512-0.098 0.707-0.293c0.391-0.39 0.391-1.023 0-1.414l-1.102-1.103c0.448-0.172 0.854-0.418 1.22-0.717l0.406 1.517c0.12 0.447 0.523 0.741 0.965 0.741 0.086 0 0.173-0.011 0.26-0.034 0.533-0.143 0.851-0.691 0.707-1.225l-0.397-1.48 1.662 1.874c0.146 0.165 0.345 0.285 0.577 0.333 0.57 0.117 1.128-0.251 1.244-0.821 0.117-0.57-0.251-1.127-0.821-1.244zM13.072 14.5c-1.379 0-2.5-1.121-2.5-2.5s1.121-2.5 2.5-2.5 2.5 1.121 2.5 2.5-1.121 2.5-2.5 2.5z"></path>
</symbol>
<symbol id="icon-cloud-sun-raindrops" viewBox="0 0 24 24">
<path d="M5.326 11.327v0c-0.050-0.268-0.076-0.544-0.076-0.827 0-2.485 2.015-4.5 4.5-4.5 1.752 0 3.271 1.002 4.014 2.463 0.609-0.596 1.442-0.963 2.361-0.963 1.864 0 3.375 1.511 3.375 3.375 0 0.157-0.011 0.311-0.031 0.462v0c1.307 0.323 2.281 1.505 2.281 2.913 0 1.653-1.344 3-3.002 3h-12.746c-1.654 0-3.002-1.343-3.002-3 0-1.422 0.993-2.616 2.326-2.923zM18.715 7.664c0.023-0.177 0.035-0.357 0.035-0.539 0-2.278-1.847-4.125-4.125-4.125-1.652 0-3.077 0.971-3.736 2.374v0c-0.367-0.081-0.748-0.124-1.139-0.124-2.899 0-5.25 2.351-5.25 5.25 0 0.104 0.003 0.207 0.009 0.309-1.329 0.578-2.259 1.903-2.259 3.441 0 2.071 1.674 3.75 3.75 3.75h12.751c2.071 0 3.75-1.683 3.75-3.75 0-1.539-0.924-2.861-2.25-3.439-0.019-1.271-0.614-2.403-1.534-3.147v0 0zM17.999 7.199v0 0c-0.562-0.287-1.199-0.449-1.874-0.449-0.794 0-1.536 0.224-2.165 0.613-0.592-0.793-1.403-1.413-2.343-1.771 0.558-1.093 1.696-1.842 3.007-1.842 1.864 0 3.375 1.511 3.375 3.375 0 0.025-0 0.050-0.001 0.074zM5.25 21.643v0c0 0.836 0.625 1.607 1.883 1.607s1.867-0.836 1.867-1.607c0-1.083-1.867-2.893-1.867-2.893s-1.883 1.81-1.883 2.893zM6.007 21.6c0-0.525 1.126-1.741 1.126-1.741s1.127 1.216 1.127 1.741c0 0.564-0.502 0.9-1.127 0.9s-1.126-0.244-1.126-0.9v0zM10.5 22.393v0c0 0.836 0.625 1.607 1.883 1.607s1.867-0.836 1.867-1.607c0-1.083-1.867-2.893-1.867-2.893s-1.883 1.81-1.883 2.893zM11.257 22.35c0-0.525 1.126-1.741 1.126-1.741s1.127 1.216 1.127 1.741c0 0.564-0.502 0.9-1.127 0.9s-1.126-0.244-1.126-0.9v0zM15.75 21.643v0c0 0.836 0.625 1.607 1.883 1.607s1.867-0.836 1.867-1.607c0-1.083-1.867-2.893-1.867-2.893s-1.883 1.81-1.883 2.893zM16.507 21.6c0-0.525 1.126-1.741 1.126-1.741s1.127 1.216 1.127 1.741c0 0.564-0.502 0.9-1.127 0.9s-1.126-0.244-1.126-0.9v0zM14.625 0c-0.207 0-0.375 0.162-0.375 0.372v1.507c0 0.205 0.174 0.372 0.375 0.372 0.207 0 0.375-0.162 0.375-0.372v-1.507c0-0.205-0.174-0.372-0.375-0.372v0zM19.675 2.092c-0.146-0.146-0.38-0.151-0.528-0.002l-1.066 1.066c-0.145 0.145-0.14 0.386 0.002 0.528 0.146 0.146 0.38 0.151 0.528 0.002l1.066-1.066c0.145-0.145 0.14-0.386-0.002-0.528v0zM21.766 7.141c0-0.207-0.162-0.375-0.372-0.375h-1.507c-0.205 0-0.372 0.174-0.372 0.375 0 0.207 0.162 0.375 0.372 0.375h1.507c0.205 0 0.372-0.174 0.372-0.375v0zM9.575 2.092c-0.146 0.146-0.151 0.38-0.002 0.528l1.066 1.066c0.145 0.145 0.386 0.14 0.528-0.002 0.146-0.146 0.151-0.38 0.002-0.528l-1.066-1.066c-0.145-0.145-0.386-0.14-0.528 0.002v0z"></path>
</symbol>
<symbol id="icon-cloud-sun-lightning" viewBox="0 0 24 24">
<path d="M12.8 15.75l1.15-3h-2.925l-1.725 4.5h1.934l-1.109 3.075 4.575-4.575h-1.9zM10.159 18h-4.16c-2.075 0-3.75-1.679-3.75-3.75 0-1.538 0.93-2.864 2.259-3.441-0.006-0.102-0.009-0.205-0.009-0.309 0-2.899 2.351-5.25 5.25-5.25 0.391 0 0.772 0.043 1.139 0.124v0c0.659-1.403 2.084-2.374 3.736-2.374 2.278 0 4.125 1.847 4.125 4.125 0 0.183-0.012 0.363-0.035 0.539v0c0.921 0.744 1.515 1.875 1.534 3.147 1.326 0.578 2.25 1.9 2.25 3.439 0 2.067-1.679 3.75-3.75 3.75h-5.25l-5.25 5.25 1.909-5.25zM17.999 7.199c0.001-0.025 0.001-0.050 0.001-0.074 0-1.864-1.511-3.375-3.375-3.375-1.312 0-2.449 0.749-3.007 1.842 0.94 0.358 1.751 0.978 2.343 1.771 0.629-0.389 1.371-0.613 2.165-0.613 0.675 0 1.312 0.162 1.874 0.449v0 0zM14.625 0c-0.207 0-0.375 0.162-0.375 0.372v1.507c0 0.205 0.174 0.372 0.375 0.372 0.207 0 0.375-0.162 0.375-0.372v-1.507c0-0.205-0.174-0.372-0.375-0.372v0zM19.675 2.092c-0.146-0.146-0.38-0.151-0.528-0.002l-1.066 1.066c-0.145 0.145-0.14 0.386 0.002 0.528 0.146 0.146 0.38 0.151 0.528 0.002l1.066-1.066c0.145-0.145 0.14-0.386-0.002-0.528v0zM21.766 7.141c0-0.207-0.162-0.375-0.372-0.375h-1.507c-0.205 0-0.372 0.174-0.372 0.375 0 0.207 0.162 0.375 0.372 0.375h1.507c0.205 0 0.372-0.174 0.372-0.375v0zM9.575 2.092c-0.146 0.146-0.151 0.38-0.002 0.528l1.066 1.066c0.145 0.145 0.386 0.14 0.528-0.002 0.146-0.146 0.151-0.38 0.002-0.528l-1.066-1.066c-0.145-0.145-0.386-0.14-0.528 0.002v0z"></path>
</symbol>
<symbol id="icon-cloud-sun-lightning1" viewBox="0 0 24 24">
<path d="M12.8 15.75l1.15-3h-2.925l-1.725 4.5h1.934l-1.109 3.075 4.575-4.575h-1.9zM14.25 17.25h4.498c1.658 0 3.002-1.347 3.002-3 0-1.408-0.974-2.59-2.281-2.913v0c0.021-0.151 0.031-0.306 0.031-0.462 0-1.864-1.511-3.375-3.375-3.375-0.919 0-1.752 0.367-2.361 0.963-0.743-1.462-2.262-2.463-4.014-2.463-2.485 0-4.5 2.015-4.5 4.5 0 0.282 0.026 0.559 0.076 0.827v0c-1.332 0.307-2.326 1.502-2.326 2.923 0 1.657 1.348 3 3.002 3h2.529l1.969-5.25h4.5l-1.125 3h2.625l-2.25 2.25zM10.159 18h-4.16c-2.075 0-3.75-1.679-3.75-3.75 0-1.538 0.93-2.864 2.259-3.441-0.006-0.102-0.009-0.205-0.009-0.309 0-2.899 2.351-5.25 5.25-5.25 0.391 0 0.772 0.043 1.139 0.124v0c0.659-1.403 2.084-2.374 3.736-2.374 2.278 0 4.125 1.847 4.125 4.125 0 0.183-0.012 0.363-0.035 0.539v0c0.921 0.744 1.515 1.875 1.534 3.147 1.326 0.578 2.25 1.9 2.25 3.439 0 2.067-1.679 3.75-3.75 3.75h-5.25l-5.25 5.25 1.909-5.25zM17.999 7.199c0.001-0.025 0.001-0.050 0.001-0.074 0-1.864-1.511-3.375-3.375-3.375-1.312 0-2.449 0.749-3.007 1.842 0.94 0.358 1.751 0.978 2.343 1.771 0.629-0.389 1.371-0.613 2.165-0.613 0.675 0 1.312 0.162 1.874 0.449v0 0zM14.625 0c-0.207 0-0.375 0.162-0.375 0.372v1.507c0 0.205 0.174 0.372 0.375 0.372 0.207 0 0.375-0.162 0.375-0.372v-1.507c0-0.205-0.174-0.372-0.375-0.372v0zM19.675 2.092c-0.146-0.146-0.38-0.151-0.528-0.002l-1.066 1.066c-0.145 0.145-0.14 0.386 0.002 0.528 0.146 0.146 0.38 0.151 0.528 0.002l1.066-1.066c0.145-0.145 0.14-0.386-0.002-0.528v0zM21.766 7.141c0-0.207-0.162-0.375-0.372-0.375h-1.507c-0.205 0-0.372 0.174-0.372 0.375 0 0.207 0.162 0.375 0.372 0.375h1.507c0.205 0 0.372-0.174 0.372-0.375v0zM9.575 2.092c-0.146 0.146-0.151 0.38-0.002 0.528l1.066 1.066c0.145 0.145 0.386 0.14 0.528-0.002 0.146-0.146 0.151-0.38 0.002-0.528l-1.066-1.066c-0.145-0.145-0.386-0.14-0.528 0.002v0z"></path>
</symbol>
<symbol id="icon-cloud-moon-rain" viewBox="0 0 24 24">
<path d="M18.956 7.871v0 0c0.782 0.738 1.276 1.779 1.293 2.936 1.326 0.578 2.25 1.9 2.25 3.439 0 2.067-1.679 3.75-3.75 3.75h-12.751c-2.075 0-3.75-1.679-3.75-3.75 0-1.538 0.93-2.864 2.259-3.441-0.006-0.102-0.009-0.205-0.009-0.309 0-2.899 2.351-5.25 5.25-5.25 0.847 0 1.647 0.201 2.356 0.557-0.069-0.299-0.106-0.611-0.106-0.932 0-1.932 1.329-3.555 3.123-4.002 0.264-0.066 0.537-0.106 0.818-0.119-0.123 0.351-0.191 0.728-0.191 1.121 0 1.864 1.511 3.375 3.375 3.375 0.393 0 0.77-0.067 1.121-0.191-0.012 0.281-0.053 0.554-0.119 0.818-0.194 0.776-0.608 1.466-1.171 1.998zM18.358 7.402c0.427-0.377 0.758-0.861 0.952-1.41-0.061 0.003-0.123 0.004-0.184 0.004-2.278 0-4.125-1.847-4.125-4.125 0-0.062 0.001-0.123 0.004-0.184-1.313 0.462-2.254 1.713-2.254 3.184 0 0.6 0.156 1.163 0.431 1.651 0.289 0.25 0.551 0.531 0.78 0.837 0.629-0.389 1.371-0.613 2.165-0.613 0.823 0 1.589 0.241 2.233 0.656v0 0zM7.875 18.75c-0.207 0-0.375 0.162-0.375 0.372v1.507c0 0.205 0.174 0.372 0.375 0.372 0.207 0 0.375-0.162 0.375-0.372v-1.507c0-0.205-0.174-0.372-0.375-0.372v0zM10.125 20.25c-0.207 0-0.375 0.162-0.375 0.372v1.507c0 0.205 0.174 0.372 0.375 0.372 0.207 0 0.375-0.162 0.375-0.372v-1.507c0-0.205-0.174-0.372-0.375-0.372v0zM12.375 18.75c-0.207 0-0.375 0.162-0.375 0.372v1.507c0 0.205 0.174 0.372 0.375 0.372 0.207 0 0.375-0.162 0.375-0.372v-1.507c0-0.205-0.174-0.372-0.375-0.372v0zM14.625 20.25c-0.207 0-0.375 0.162-0.375 0.372v1.507c0 0.205 0.174 0.372 0.375 0.372 0.207 0 0.375-0.162 0.375-0.372v-1.507c0-0.205-0.174-0.372-0.375-0.372v0zM16.875 18.75c-0.207 0-0.375 0.162-0.375 0.372v1.507c0 0.205 0.174 0.372 0.375 0.372 0.207 0 0.375-0.162 0.375-0.372v-1.507c0-0.205-0.174-0.372-0.375-0.372v0z"></path>
</symbol>
<symbol id="icon-clouds" viewBox="0 0 32 32">
<path d="M27.194 19.995c2.115-0.106 3.806-1.854 3.806-3.995 0-1.901-1.334-3.497-3.121-3.901 0.079-0.354 0.121-0.721 0.121-1.099 0-2.761-2.239-5-5-5-1.868 0-3.497 1.025-4.356 2.543-0.637-0.346-1.368-0.543-2.144-0.543-1.728 0-3.229 0.974-3.983 2.404 1.293 0.428 2.44 1.177 3.346 2.153 0.806-0.358 1.698-0.557 2.637-0.557 3.347 0 6.102 2.529 6.461 5.78 0.927 0.527 1.699 1.293 2.234 2.215v0 0zM27 23c0 2.756-2.238 5-4.999 5h-17.001c-2.767 0-4.999-2.239-4.999-5 0-2.051 1.24-3.818 3.012-4.588-0.008-0.136-0.012-0.273-0.012-0.412 0-3.866 3.134-7 7-7 2.298 0 4.337 1.107 5.614 2.817 0.839-0.518 1.828-0.817 2.886-0.817 3.009 0 5.454 2.416 5.499 5.415 1.768 0.771 3.001 2.534 3.001 4.585v0z"></path>
</symbol>
<symbol id="icon-cloud-moon-raindrops" viewBox="0 0 32 32">
<path d="M25.275 10.5v0c1.043 0.985 1.701 2.373 1.724 3.915 1.768 0.771 3.001 2.534 3.001 4.585 0 2.756-2.238 5-4.999 5h-17.001c-2.767 0-4.999-2.239-4.999-5 0-2.051 1.24-3.818 3.012-4.588-0.008-0.136-0.012-0.273-0.012-0.412 0-3.866 3.134-7 7-7 1.129 0 2.196 0.267 3.141 0.743-0.092-0.399-0.141-0.815-0.141-1.243 0-2.577 1.772-4.739 4.163-5.337 0.351-0.088 0.716-0.142 1.091-0.158-0.165 0.468-0.254 0.971-0.254 1.495 0 2.485 2.015 4.5 4.5 4.5 0.524 0 1.027-0.090 1.495-0.254-0.016 0.375-0.070 0.739-0.158 1.091-0.258 1.035-0.81 1.954-1.562 2.664zM24.477 9.875c0.57-0.503 1.011-1.148 1.269-1.88-0.081 0.004-0.163 0.005-0.246 0.005-3.038 0-5.5-2.462-5.5-5.5 0-0.082 0.002-0.164 0.005-0.246-1.751 0.616-3.005 2.284-3.005 4.246 0 0.8 0.209 1.55 0.574 2.201 0.386 0.333 0.734 0.707 1.039 1.116 0.839-0.518 1.828-0.817 2.886-0.817 1.097 0 2.119 0.321 2.977 0.875v0zM7 28.857c0-1.444 2.511-3.857 2.511-3.857s2.489 2.414 2.489 3.857c0 1.029-0.813 2.143-2.489 2.143s-2.511-1.029-2.511-2.143v0zM14 29.857c0-1.444 2.511-3.857 2.511-3.857s2.489 2.414 2.489 3.857c0 1.029-0.813 2.143-2.489 2.143s-2.511-1.029-2.511-2.143v0zM21 28.857c0-1.444 2.511-3.857 2.511-3.857s2.489 2.414 2.489 3.857c0 1.029-0.813 2.143-2.489 2.143s-2.511-1.029-2.511-2.143v0z"></path>
</symbol>
<symbol id="icon-cloud-sun-raindrops" viewBox="0 0 32 32">
<path d="M7.101 15.102v0c-0.066-0.357-0.101-0.726-0.101-1.102 0-3.314 2.686-6 6-6 2.336 0 4.361 1.335 5.352 3.285 0.812-0.795 1.923-1.285 3.148-1.285 2.485 0 4.5 2.015 4.5 4.5 0 0.209-0.014 0.415-0.042 0.616v0c1.743 0.431 3.042 2.006 3.042 3.884 0 2.205-1.792 4-4.003 4h-16.994c-2.205 0-4.003-1.791-4.003-4 0-1.895 1.325-3.488 3.101-3.898zM24.953 10.219c0.031-0.235 0.047-0.475 0.047-0.719 0-3.038-2.462-5.5-5.5-5.5-2.203 0-4.103 1.295-4.981 3.165v0c-0.489-0.108-0.997-0.165-1.519-0.165-3.866 0-7 3.134-7 7 0 0.138 0.004 0.275 0.012 0.412-1.772 0.77-3.012 2.538-3.012 4.588 0 2.761 2.232 5 4.999 5h17.001c2.761 0 4.999-2.244 4.999-5 0-2.052-1.232-3.815-3.001-4.585-0.026-1.695-0.818-3.204-2.046-4.195v0 0zM23.999 9.599v0 0c-0.75-0.383-1.599-0.599-2.499-0.599-1.059 0-2.047 0.299-2.886 0.817-0.789-1.057-1.87-1.884-3.124-2.362 0.745-1.458 2.261-2.456 4.010-2.456 2.485 0 4.5 2.015 4.5 4.5 0 0.033-0 0.066-0.001 0.099zM7 28.857v0c0 1.114 0.834 2.143 2.511 2.143s2.489-1.114 2.489-2.143c0-1.444-2.489-3.857-2.489-3.857s-2.511 2.414-2.511 3.857zM8.010 28.8c0-0.7 1.501-2.321 1.501-2.321s1.502 1.621 1.502 2.321c0 0.752-0.669 1.2-1.502 1.2s-1.501-0.325-1.501-1.2v0zM14 29.857v0c0 1.114 0.834 2.143 2.511 2.143s2.489-1.114 2.489-2.143c0-1.444-2.489-3.857-2.489-3.857s-2.511 2.414-2.511 3.857zM15.010 29.8c0-0.7 1.501-2.321 1.501-2.321s1.502 1.621 1.502 2.321c0 0.752-0.669 1.2-1.502 1.2s-1.501-0.325-1.501-1.2v0zM21 28.857v0c0 1.114 0.834 2.143 2.511 2.143s2.489-1.114 2.489-2.143c0-1.444-2.489-3.857-2.489-3.857s-2.511 2.414-2.511 3.857zM22.010 28.8c0-0.7 1.501-2.321 1.501-2.321s1.502 1.621 1.502 2.321c0 0.752-0.669 1.2-1.502 1.2s-1.501-0.325-1.501-1.2v0zM19.5 0c-0.276 0-0.5 0.216-0.5 0.495v2.009c0 0.274 0.232 0.495 0.5 0.495 0.276 0 0.5-0.216 0.5-0.495v-2.009c0-0.274-0.232-0.495-0.5-0.495v0zM26.233 2.789c-0.195-0.195-0.506-0.201-0.704-0.003l-1.421 1.421c-0.193 0.193-0.186 0.514 0.003 0.704 0.195 0.195 0.506 0.201 0.704 0.003l1.421-1.421c0.193-0.193 0.186-0.514-0.003-0.704v0zM29.022 9.522c0-0.276-0.216-0.5-0.495-0.5h-2.009c-0.274 0-0.495 0.232-0.495 0.5 0 0.276 0.216 0.5 0.495 0.5h2.009c0.274 0 0.495-0.232 0.495-0.5v0zM12.767 2.789c-0.195 0.195-0.201 0.506-0.003 0.704l1.421 1.421c0.193 0.193 0.514 0.186 0.704-0.003 0.195-0.195 0.201-0.506 0.003-0.704l-1.421-1.421c-0.193-0.193-0.514-0.186-0.704 0.003v0z"></path>
</symbol>
<symbol id="icon-cloud-sun-lightning" viewBox="0 0 32 32">
<path d="M17.067 21l1.533-4h-3.9l-2.3 6h2.579l-1.479 4.1 6.1-6.1h-2.533zM13.545 24h-5.546c-2.767 0-4.999-2.239-4.999-5 0-2.051 1.24-3.818 3.012-4.588-0.008-0.136-0.012-0.273-0.012-0.412 0-3.866 3.134-7 7-7 0.522 0 1.030 0.057 1.519 0.165v0c0.878-1.87 2.778-3.165 4.981-3.165 3.038 0 5.5 2.462 5.5 5.5 0 0.244-0.016 0.484-0.047 0.719v0c1.228 0.992 2.020 2.501 2.046 4.195 1.768 0.771 3.001 2.534 3.001 4.585 0 2.756-2.238 5-4.999 5h-7.001l-7 7 2.545-7zM23.999 9.599c0.001-0.033 0.001-0.066 0.001-0.099 0-2.485-2.015-4.5-4.5-4.5-1.749 0-3.265 0.998-4.010 2.456 1.253 0.477 2.334 1.304 3.124 2.362 0.839-0.518 1.828-0.817 2.886-0.817 0.9 0 1.749 0.216 2.499 0.599v0 0zM19.5 0c-0.276 0-0.5 0.216-0.5 0.495v2.009c0 0.274 0.232 0.495 0.5 0.495 0.276 0 0.5-0.216 0.5-0.495v-2.009c0-0.274-0.232-0.495-0.5-0.495v0zM26.233 2.789c-0.195-0.195-0.506-0.201-0.704-0.003l-1.421 1.421c-0.193 0.193-0.186 0.514 0.003 0.704 0.195 0.195 0.506 0.201 0.704 0.003l1.421-1.421c0.193-0.193 0.186-0.514-0.003-0.704v0zM29.022 9.522c0-0.276-0.216-0.5-0.495-0.5h-2.009c-0.274 0-0.495 0.232-0.495 0.5 0 0.276 0.216 0.5 0.495 0.5h2.009c0.274 0 0.495-0.232 0.495-0.5v0zM12.767 2.789c-0.195 0.195-0.201 0.506-0.003 0.704l1.421 1.421c0.193 0.193 0.514 0.186 0.704-0.003 0.195-0.195 0.201-0.506 0.003-0.704l-1.421-1.421c-0.193-0.193-0.514-0.186-0.704 0.003v0z"></path>
</symbol>
<symbol id="icon-cloud-sun-lightning1" viewBox="0 0 32 32">
<path d="M17.067 21l1.533-4h-3.9l-2.3 6h2.579l-1.479 4.1 6.1-6.1h-2.533zM19 23h5.997c2.211 0 4.003-1.795 4.003-4 0-1.877-1.299-3.453-3.042-3.884v0c0.028-0.202 0.042-0.407 0.042-0.616 0-2.485-2.015-4.5-4.5-4.5-1.226 0-2.337 0.49-3.148 1.285-0.991-1.949-3.015-3.285-5.352-3.285-3.314 0-6 2.686-6 6 0 0.377 0.035 0.745 0.101 1.102v0c-1.776 0.41-3.101 2.002-3.101 3.898 0 2.209 1.798 4 4.003 4h3.372l2.625-7h6l-1.5 4h3.5l-3 3zM13.545 24h-5.546c-2.767 0-4.999-2.239-4.999-5 0-2.051 1.24-3.818 3.012-4.588-0.008-0.136-0.012-0.273-0.012-0.412 0-3.866 3.134-7 7-7 0.522 0 1.030 0.057 1.519 0.165v0c0.878-1.87 2.778-3.165 4.981-3.165 3.038 0 5.5 2.462 5.5 5.5 0 0.244-0.016 0.484-0.047 0.719v0c1.228 0.992 2.020 2.501 2.046 4.195 1.768 0.771 3.001 2.534 3.001 4.585 0 2.756-2.238 5-4.999 5h-7.001l-7 7 2.545-7zM23.999 9.599c0.001-0.033 0.001-0.066 0.001-0.099 0-2.485-2.015-4.5-4.5-4.5-1.749 0-3.265 0.998-4.010 2.456 1.253 0.477 2.334 1.304 3.124 2.362 0.839-0.518 1.828-0.817 2.886-0.817 0.9 0 1.749 0.216 2.499 0.599v0 0zM19.5 0c-0.276 0-0.5 0.216-0.5 0.495v2.009c0 0.274 0.232 0.495 0.5 0.495 0.276 0 0.5-0.216 0.5-0.495v-2.009c0-0.274-0.232-0.495-0.5-0.495v0zM26.233 2.789c-0.195-0.195-0.506-0.201-0.704-0.003l-1.421 1.421c-0.193 0.193-0.186 0.514 0.003 0.704 0.195 0.195 0.506 0.201 0.704 0.003l1.421-1.421c0.193-0.193 0.186-0.514-0.003-0.704v0zM29.022 9.522c0-0.276-0.216-0.5-0.495-0.5h-2.009c-0.274 0-0.495 0.232-0.495 0.5 0 0.276 0.216 0.5 0.495 0.5h2.009c0.274 0 0.495-0.232 0.495-0.5v0zM12.767 2.789c-0.195 0.195-0.201 0.506-0.003 0.704l1.421 1.421c0.193 0.193 0.514 0.186 0.704-0.003 0.195-0.195 0.201-0.506 0.003-0.704l-1.421-1.421c-0.193-0.193-0.514-0.186-0.704 0.003v0z"></path>
</symbol>
<symbol id="icon-cloud-moon-rain" viewBox="0 0 32 32">
<path d="M25.275 10.495v0 0c1.043 0.985 1.701 2.373 1.724 3.915 1.768 0.771 3.001 2.534 3.001 4.585 0 2.756-2.238 5-4.999 5h-17.001c-2.767 0-4.999-2.239-4.999-5 0-2.051 1.24-3.818 3.012-4.588-0.008-0.136-0.012-0.273-0.012-0.412 0-3.866 3.134-7 7-7 1.129 0 2.196 0.267 3.141 0.743-0.092-0.399-0.141-0.815-0.141-1.243 0-2.577 1.772-4.739 4.163-5.337 0.351-0.088 0.716-0.142 1.091-0.158-0.165 0.468-0.254 0.971-0.254 1.495 0 2.485 2.015 4.5 4.5 4.5 0.524 0 1.027-0.090 1.495-0.254-0.016 0.375-0.070 0.739-0.158 1.091-0.258 1.035-0.81 1.954-1.562 2.664zM24.477 9.869c0.57-0.503 1.011-1.148 1.269-1.88-0.081 0.004-0.163 0.005-0.246 0.005-3.038 0-5.5-2.462-5.5-5.5 0-0.082 0.002-0.164 0.005-0.246-1.751 0.616-3.005 2.284-3.005 4.246 0 0.8 0.209 1.55 0.574 2.201 0.386 0.333 0.734 0.707 1.039 1.116 0.839-0.518 1.828-0.817 2.886-0.817 1.097 0 2.119 0.321 2.977 0.875v0 0zM10.5 25c-0.276 0-0.5 0.216-0.5 0.495v2.009c0 0.274 0.232 0.495 0.5 0.495 0.276 0 0.5-0.216 0.5-0.495v-2.009c0-0.274-0.232-0.495-0.5-0.495v0zM13.5 27c-0.276 0-0.5 0.216-0.5 0.495v2.009c0 0.274 0.232 0.495 0.5 0.495 0.276 0 0.5-0.216 0.5-0.495v-2.009c0-0.274-0.232-0.495-0.5-0.495v0zM16.5 25c-0.276 0-0.5 0.216-0.5 0.495v2.009c0 0.274 0.232 0.495 0.5 0.495 0.276 0 0.5-0.216 0.5-0.495v-2.009c0-0.274-0.232-0.495-0.5-0.495v0zM19.5 27c-0.276 0-0.5 0.216-0.5 0.495v2.009c0 0.274 0.232 0.495 0.5 0.495 0.276 0 0.5-0.216 0.5-0.495v-2.009c0-0.274-0.232-0.495-0.5-0.495v0zM22.5 25c-0.276 0-0.5 0.216-0.5 0.495v2.009c0 0.274 0.232 0.495 0.5 0.495 0.276 0 0.5-0.216 0.5-0.495v-2.009c0-0.274-0.232-0.495-0.5-0.495v0z"></path>
</symbol>
<symbol id="icon-cloud-sun-rain" viewBox="0 0 32 32">
<path d="M24.953 10.219v0c1.228 0.992 2.020 2.501 2.046 4.195 1.768 0.771 3.001 2.534 3.001 4.585 0 2.756-2.238 5-4.999 5h-17.001c-2.767 0-4.999-2.239-4.999-5 0-2.051 1.24-3.818 3.012-4.588-0.008-0.136-0.012-0.273-0.012-0.412 0-3.866 3.134-7 7-7 0.522 0 1.030 0.057 1.519 0.165v0c0.878-1.87 2.778-3.165 4.981-3.165 3.038 0 5.5 2.462 5.5 5.5 0 0.244-0.016 0.484-0.047 0.719zM23.999 9.599c0.001-0.033 0.001-0.066 0.001-0.099 0-2.485-2.015-4.5-4.5-4.5-1.749 0-3.265 0.998-4.010 2.456 1.253 0.477 2.334 1.304 3.124 2.362 0.839-0.518 1.828-0.817 2.886-0.817 0.9 0 1.749 0.216 2.499 0.599v0zM19.5 0c-0.276 0-0.5 0.216-0.5 0.495v2.009c0 0.274 0.232 0.495 0.5 0.495 0.276 0 0.5-0.216 0.5-0.495v-2.009c0-0.274-0.232-0.495-0.5-0.495v0zM26.233 2.789c-0.195-0.195-0.506-0.201-0.704-0.003l-1.421 1.421c-0.193 0.193-0.186 0.514 0.003 0.704 0.195 0.195 0.506 0.201 0.704 0.003l1.421-1.421c0.193-0.193 0.186-0.514-0.003-0.704v0zM29.022 9.522c0-0.276-0.216-0.5-0.495-0.5h-2.009c-0.274 0-0.495 0.232-0.495 0.5 0 0.276 0.216 0.5 0.495 0.5h2.009c0.274 0 0.495-0.232 0.495-0.5v0zM12.767 2.789c-0.195 0.195-0.201 0.506-0.003 0.704l1.421 1.421c0.193 0.193 0.514 0.186 0.704-0.003 0.195-0.195 0.201-0.506 0.003-0.704l-1.421-1.421c-0.193-0.193-0.514-0.186-0.704 0.003v0z"></path>
</symbol>
<symbol id="icon-cloud-moon" viewBox="0 0 32 32">
<path d="M25.275 10.5v0c1.043 0.985 1.701 2.373 1.724 3.915 1.768 0.771 3.001 2.534 3.001 4.585 0 2.756-2.238 5-4.999 5h-17.001c-2.767 0-4.999-2.239-4.999-5 0-2.051 1.24-3.818 3.012-4.588-0.008-0.136-0.012-0.273-0.012-0.412 0-3.866 3.134-7 7-7 1.129 0 2.196 0.267 3.141 0.743-0.092-0.399-0.141-0.815-0.141-1.243 0-2.577 1.772-4.739 4.163-5.337 0.351-0.088 0.716-0.142 1.091-0.158-0.165 0.468-0.254 0.971-0.254 1.495 0 2.485 2.015 4.5 4.5 4.5 0.524 0 1.027-0.090 1.495-0.254-0.016 0.375-0.070 0.739-0.158 1.091-0.258 1.035-0.81 1.954-1.562 2.664zM24.477 9.875c0.57-0.503 1.011-1.148 1.269-1.88-0.081 0.004-0.163 0.005-0.246 0.005-3.038 0-5.5-2.462-5.5-5.5 0-0.082 0.002-0.164 0.005-0.246-1.751 0.616-3.005 2.284-3.005 4.246 0 0.8 0.209 1.55 0.574 2.201 0.386 0.333 0.734 0.707 1.039 1.116 0.839-0.518 1.828-0.817 2.886-0.817 1.097 0 2.119 0.321 2.977 0.875v0z"></path>
</symbol>
<symbol id="icon-cloud-error" viewBox="0 0 32 32">
<path d="M21.462 22h2.539c2.761 0 4.999-2.244 4.999-5 0-2.096-1.287-3.892-3.117-4.634v0c-0.523-2.493-2.734-4.366-5.383-4.366-0.863 0-1.679 0.199-2.406 0.553-1.203-2.121-3.481-3.553-6.094-3.553-3.866 0-7 3.134-7 7 0 0.138 0.004 0.275 0.012 0.412v0c-1.772 0.77-3.012 2.538-3.012 4.588 0 2.761 2.232 5 4.999 5h2.539l5.962-10 5.962 10zM15.5 14l6.5 11h-13l6.5-11zM15 18v3h1v-3h-1zM15 22v1h1v-1h-1z"></path>
</symbol>
<symbol id="icon-cloud-wind" viewBox="0 0 32 32">
<path d="M26.999 8.415c1.768 0.771 3.001 2.534 3.001 4.585 0 2.756-2.238 5-4.999 5h-17.001c-2.767 0-4.999-2.239-4.999-5 0-2.051 1.24-3.818 3.012-4.588v0c-0.008-0.136-0.012-0.273-0.012-0.412 0-3.866 3.134-7 7-7 2.298 0 4.337 1.107 5.614 2.817 0.839-0.518 1.828-0.817 2.886-0.817 3.009 0 5.454 2.416 5.499 5.415v0 0zM30 23c0-2.209-1.795-4-4-4-2.209 0-4 1.789-4 4h1c0-1.657 1.347-3 3-3 1.657 0 3 1.347 3 3 0 1.657-1.343 3-3.008 3h-22.992v1h23.002c2.208 0 3.998-1.795 3.998-4v0zM21 22c0-1.657-1.347-3-3-3-1.657 0-3 1.342-3 2.991v0.009h1c0-1.105 0.888-2 2-2 1.105 0 2 0.888 2 2 0 1.105-0.897 2-2.006 2h-11.994v1h12.001c1.657 0 2.999-1.347 2.999-3v0zM25 30c0 1.105-0.888 2-2 2v0c-1.105 0-2-0.895-2-1.994v-0.006h1c0 0.552 0.444 1 1 1v0c0.552 0 1-0.444 1-1v0c0-0.552-0.449-1-1.007-1h-13.993v-1h14.006c1.101 0 1.994 0.888 1.994 2v0 0z"></path>
</symbol>
<symbol id="icon-cloud-lightning" viewBox="0 0 32 32">
<path d="M17.067 21h2.533l-6.1 6.1 1.479-4.1h-2.579l2.3-6h3.9l-1.533 4zM19 23l3-3h-3.5l1.5-4h-6l-2.625 7h-3.372c-2.205 0-4.003-1.791-4.003-4 0-1.895 1.325-3.488 3.101-3.898v0c-0.066-0.357-0.101-0.726-0.101-1.102 0-3.314 2.686-6 6-6 2.336 0 4.361 1.335 5.352 3.285 0.812-0.795 1.923-1.285 3.148-1.285 2.485 0 4.5 2.015 4.5 4.5 0 0.209-0.014 0.415-0.042 0.616v0c1.743 0.431 3.042 2.006 3.042 3.884 0 2.205-1.792 4-4.003 4h-5.997zM18 24h7.001c2.761 0 4.999-2.244 4.999-5 0-2.052-1.232-3.815-3.001-4.585v0c-0.046-2.998-2.49-5.415-5.499-5.415-1.059 0-2.047 0.299-2.886 0.817-1.276-1.71-3.316-2.817-5.614-2.817-3.866 0-7 3.134-7 7 0 0.138 0.004 0.275 0.012 0.412v0c-1.772 0.77-3.012 2.538-3.012 4.588 0 2.761 2.232 5 4.999 5h5.546l-2.545 7 7-7z"></path>
</symbol>
<symbol id="icon-cloud-snow" viewBox="0 0 32 32">
<path d="M26.999 14.415c1.768 0.771 3.001 2.534 3.001 4.585 0 2.756-2.238 5-4.999 5h-17.001c-2.767 0-4.999-2.239-4.999-5 0-2.051 1.24-3.818 3.012-4.588v0c-0.008-0.136-0.012-0.273-0.012-0.412 0-3.866 3.134-7 7-7 2.298 0 4.337 1.107 5.614 2.817 0.839-0.518 1.828-0.817 2.886-0.817 3.009 0 5.454 2.416 5.499 5.415v0 0zM10 26c-0.552 0-1 0.444-1 1 0 0.552 0.444 1 1 1 0.552 0 1-0.444 1-1 0-0.552-0.444-1-1-1v0zM13 29c-0.552 0-1 0.444-1 1 0 0.552 0.444 1 1 1 0.552 0 1-0.444 1-1 0-0.552-0.444-1-1-1v0zM17 26c-0.552 0-1 0.444-1 1 0 0.552 0.444 1 1 1 0.552 0 1-0.444 1-1 0-0.552-0.444-1-1-1v0zM20 29c-0.552 0-1 0.444-1 1 0 0.552 0.444 1 1 1 0.552 0 1-0.444 1-1 0-0.552-0.444-1-1-1v0zM23 26c-0.552 0-1 0.444-1 1 0 0.552 0.444 1 1 1 0.552 0 1-0.444 1-1 0-0.552-0.444-1-1-1v0z"></path>
</symbol>
<symbol id="icon-cloud-rain" viewBox="0 0 32 32">
<path d="M26.999 14.415c1.768 0.771 3.001 2.534 3.001 4.585 0 2.756-2.238 5-4.999 5h-17.001c-2.767 0-4.999-2.239-4.999-5 0-2.051 1.24-3.818 3.012-4.588v0c-0.008-0.136-0.012-0.273-0.012-0.412 0-3.866 3.134-7 7-7 2.298 0 4.337 1.107 5.614 2.817 0.839-0.518 1.828-0.817 2.886-0.817 3.009 0 5.454 2.416 5.499 5.415v0 0zM10.5 25c-0.276 0-0.5 0.216-0.5 0.495v2.009c0 0.274 0.232 0.495 0.5 0.495 0.276 0 0.5-0.216 0.5-0.495v-2.009c0-0.274-0.232-0.495-0.5-0.495v0zM13.5 27c-0.276 0-0.5 0.216-0.5 0.495v2.009c0 0.274 0.232 0.495 0.5 0.495 0.276 0 0.5-0.216 0.5-0.495v-2.009c0-0.274-0.232-0.495-0.5-0.495v0zM16.5 25c-0.276 0-0.5 0.216-0.5 0.495v2.009c0 0.274 0.232 0.495 0.5 0.495 0.276 0 0.5-0.216 0.5-0.495v-2.009c0-0.274-0.232-0.495-0.5-0.495v0zM19.5 27c-0.276 0-0.5 0.216-0.5 0.495v2.009c0 0.274 0.232 0.495 0.5 0.495 0.276 0 0.5-0.216 0.5-0.495v-2.009c0-0.274-0.232-0.495-0.5-0.495v0zM22.5 25c-0.276 0-0.5 0.216-0.5 0.495v2.009c0 0.274 0.232 0.495 0.5 0.495 0.276 0 0.5-0.216 0.5-0.495v-2.009c0-0.274-0.232-0.495-0.5-0.495v0z"></path>
</symbol>
<symbol id="icon-cloud2" viewBox="0 0 32 32">
<path d="M25.883 15.366c1.83 0.743 3.117 2.538 3.117 4.634 0 2.756-2.238 5-4.999 5h-17.001c-2.767 0-4.999-2.239-4.999-5 0-2.051 1.24-3.818 3.012-4.588v0c-0.008-0.136-0.012-0.273-0.012-0.412 0-3.866 3.134-7 7-7 2.613 0 4.891 1.431 6.094 3.553 0.727-0.354 1.543-0.553 2.406-0.553 2.649 0 4.86 1.872 5.383 4.366z"></path>
</symbol>
</defs>
</svg>
